FILE "Rageball (Europe).bin" BINARY
  TRACK 01 MODE2/2352
    INDEX 01 00:00:00
  TRACK 02 AUDIO
    INDEX 00 02:14:19
    INDEX 01 02:16:19
  TRACK 03 AUDIO
    INDEX 00 05:06:71
    INDEX 01 05:08:71
  TRACK 04 AUDIO
    INDEX 00 06:02:71
    INDEX 01 06:04:71
  TRACK 05 AUDIO
    INDEX 00 08:06:72
    INDEX 01 08:08:72
